<svg xmlns="http://www.w3.org/2000/svg" width="172" height="99.012" viewBox="0 0 172 99.012">
  <g id="Grupo_5" data-name="Grupo 5" transform="translate(-731 -6595.988)">
    <g id="Grupo_2" data-name="Grupo 2" transform="translate(41 3)">
      <path id="Icon_awesome-square-full" data-name="Icon awesome-square-full" d="M36,36.21H0V0H36Z" transform="translate(768 6620)" fill="#fff" />
      <path id="strikethrough-solid" d="M17.012,45.484a6.041,6.041,0,0,1,3.554-4.66c2.225-1.087,5.463-1.485,9.345-.785,1.255.229,5.147,1.1,6.339,1.449a3.365,3.365,0,0,0,4.134-2.741,3.949,3.949,0,0,0-2.394-4.733c-1.508-.459-5.653-1.376-7.024-1.618a21.3,21.3,0,0,0-13.046,1.316,13.592,13.592,0,0,0-7.573,10.54,1.355,1.355,0,0,0-.021.205,15.248,15.248,0,0,0,1.065,7.8,12.507,12.507,0,0,0,1.761,2.886H3.375a3.9,3.9,0,0,0,0,7.727h47.25a3.9,3.9,0,0,0,0-7.727H28.487c-.011,0-.032-.012-.042-.012l-.116-.036c-3.8-1.3-6.877-2.366-8.986-4a5.925,5.925,0,0,1-1.92-2.306,6.44,6.44,0,0,1-.4-3.308ZM36.8,68.81a7.227,7.227,0,0,1,.2,3.634A6.025,6.025,0,0,1,33.423,77.2c-2.225,1.087-5.453,1.485-9.334.785a56.379,56.379,0,0,1-7.847-2.668c-.591-.229-1.16-.447-1.677-.652a3.3,3.3,0,0,0-4.271,2.451,4.012,4.012,0,0,0,2.141,4.89c.38.145.833.326,1.339.519h0a63.779,63.779,0,0,0,9.239,3.091h.021A21.3,21.3,0,0,0,36.081,84.3a13.592,13.592,0,0,0,7.573-10.54,16.459,16.459,0,0,0-.327-7.015H35.343a5.237,5.237,0,0,1,1.466,2.077Z" transform="translate(714 6561.031)" fill="#fff" />
    </g>
    <text id="Sergio_Cuadros" data-name="Sergio Cuadros" transform="translate(731 6659)" fill = "#fff" font-size="20" font-family="Montserrat"><tspan x="0" y="19">Sergio Cuadros</tspan></text>
  </g>
</svg>
